<svg t="1561967924405" class="icon" viewBox="0 0 1024 1024" version="1.1" xmlns="http://www.w3.org/2000/svg" p-id="1840" width="128" height="128" xmlns:xlink="http://www.w3.org/1999/xlink"><defs><style type="text/css"></style></defs><path d="M426.670207 469.329793H512v85.329792h-85.329793zM554.670207 469.329793h85.329793v85.329792h-85.329793zM682.670207 469.329793H768v85.329792h-85.329793zM810.670207 469.329793h85.329793v85.329792h-85.329793zM170.670207 597.329793H256v85.329792h-85.329793zM298.670207 597.329793h85.329793v85.329792h-85.329793zM426.670207 597.329793H512v85.329792h-85.329793zM554.670207 597.329793h85.329793v85.329792h-85.329793zM682.670207 597.329793H768v85.329792h-85.329793zM810.670207 597.329793h85.329793v85.329792h-85.329793zM170.670207 725.329793H256v85.329792h-85.329793zM298.670207 725.329793h85.329793v85.329792h-85.329793zM426.670207 725.329793H512v85.329792h-85.329793zM554.670207 725.329793h85.329793v85.329792h-85.329793z" p-id="1841"></path><path d="M938.670207 85.329793h-85.340414V0h-128v85.329793H298.670207V0h-128v85.329793H85.329793A85.340415 85.340415 0 0 0 0 170.670207v768A85.340415 85.340415 0 0 0 85.329793 1024h853.340414A85.340415 85.340415 0 0 0 1024 938.670207v-768a85.340415 85.340415 0 0 0-85.329793-85.340414z m0 853.340414H85.329793V341.329793h853.340414z" p-id="1842"></path></svg>