<?xml version="1.0" standalone="no"?><!DOCTYPE svg PUBLIC "-//W3C//DTD SVG 1.1//EN" "http://www.w3.org/Graphics/SVG/1.1/DTD/svg11.dtd"><svg t="1562666281134" class="icon" viewBox="0 0 1024 1024" version="1.1" xmlns="http://www.w3.org/2000/svg" p-id="4922" width="128" height="128" xmlns:xlink="http://www.w3.org/1999/xlink"><defs><style type="text/css"></style></defs><path d="M641.47368406 32h268.42105313v240h-268.42105313z" p-id="4923" fill="#ffa000"></path><path d="M909.89473719 73.05263187h50.526315v198.94736813h-50.526315z" p-id="4924" fill="#ffa000"></path><path d="M556.21052656 32h85.2631575v47.36842125h-85.2631575z" p-id="4925" fill="#ffa000"></path><path d="M512 73.05263187h82.10526281v53.68421063h-82.10526281z" p-id="4926" fill="#ffa000"></path><path d="M512 126.7368425h129.47368406v145.2631575h-129.47368406z" p-id="4927" fill="#ffa000"></path><path d="M512 272h221.05263188v85.2631575h-221.05263188z" p-id="4928" fill="#ffa000"></path><path d="M733.05263188 325.68421062h126.31578937v31.57894688h-126.31578938z" p-id="4929" fill="#ffa000"></path><path d="M512 357.2631575h176.84210531v296.84210531h-176.84210531z" p-id="4930" fill="#ffa000"></path><path d="M688.84210531 458.31578938h85.2631575v41.05263187h-85.2631575z" p-id="4931" fill="#ffa000"></path><path d="M733.05263188 499.36842125h41.05263093v41.05263094h-41.05263094z" p-id="4932" fill="#ffa000"></path><path d="M464.63157875 366.7368425h47.36842125v492.63157875h-47.36842125z" p-id="4933" fill="#ffa000"></path><path d="M512 654.10526281h34.7368425v337.89473719h-34.7368425z" p-id="4934" fill="#ffa000"></path><path d="M546.7368425 944.63157875h63.15789469v47.36842125h-63.15789469z" p-id="4935" fill="#ffa000"></path><path d="M546.7368425 654.10526281h94.73684156v60h-94.73684156z" p-id="4936" fill="#ffa000"></path><path d="M543.57894781 714.10526281h47.36842031v50.52631594h-47.36842031z" p-id="4937" fill="#ffa000"></path><path d="M401.47368406 410.94736812h63.15789469v401.05263188h-63.15789469z" p-id="4938" fill="#ffa000"></path><path d="M249.89473719 549.89473719h151.57894687v258.94736812H249.89473719z" p-id="4939" fill="#ffa000"></path><path d="M335.15789469 458.31578938h66.31578937v91.57894781H335.15789469z" p-id="4940" fill="#ffa000"></path><path d="M294.10526281 505.68421062h41.05263188v44.21052657H294.10526281z" p-id="4941" fill="#ffa000"></path><path d="M284.63157875 808.84210531h116.84210531v3.15789469H284.63157875z" p-id="4942" fill="#ffa000"></path><path d="M284.63157875 812h132.63157875v47.36842125H284.63157875z" p-id="4943" fill="#ffa000"></path><path d="M284.63157875 859.36842125h91.57894781v41.05263094H284.63157875z" p-id="4944" fill="#ffa000"></path><path d="M284.63157875 900.42105219h41.05263187v91.57894781H284.63157875z" p-id="4945" fill="#ffa000"></path><path d="M325.68421062 944.63157875h56.84210532v47.36842125H325.68421062z" p-id="4946" fill="#ffa000"></path><path d="M63.57894781 366.7368425h44.21052563v265.2631575H63.57894781z" p-id="4947" fill="#ffa000"></path><path d="M107.78947344 455.15789469h44.21052656v211.57894781H107.78947344z" p-id="4948" fill="#ffa000"></path><path d="M152 499.36842125h44.21052656v214.73684156H152z" p-id="4949" fill="#ffa000"></path><path d="M196.21052656 549.89473719h53.68421063v164.21052562H196.21052656z" p-id="4950" fill="#ffa000"></path></svg>