<svg t="1583670831988" class="icon" viewBox="0 0 1024 1024" version="1.1" xmlns="http://www.w3.org/2000/svg" p-id="3476" xmlns:xlink="http://www.w3.org/1999/xlink" width="140" height="140"><defs><style type="text/css"></style></defs><path d="M512 989.86666667C248.10666667 989.86666667 34.13333333 775.89333333 34.13333333 512S248.10666667 34.13333333 512 34.13333333s477.86666667 213.97333333 477.86666667 477.86666667-213.97333333 477.86666667-477.86666667 477.86666667z m0-63.68c228.69333333 0 414.18666667-185.38666667 414.18666667-414.18666667S740.69333333 97.81333333 512 97.81333333 97.81333333 283.30666667 97.81333333 512 283.30666667 926.18666667 512 926.18666667z" p-id="3477" fill="#707070"></path><path d="M524.37333333 278.4c43.52 0 78.82666667 11.52 106.02666667 36.05333333 27.2 23.78666667 40.74666667 56.42666667 40.74666667 97.17333334 0 33.28-8.85333333 61.12-25.81333334 82.88-6.08 7.46666667-25.17333333 25.17333333-57.06666666 53.01333333-12.90666667 10.88-22.4 23.14666667-28.58666667 35.30666667-7.46666667 13.54666667-10.88 28.58666667-10.88 44.90666666v11.52h-72.74666667v-11.52c0-25.17333333 4.05333333-46.93333333 13.54666667-64.53333333 8.85333333-18.98666667 34.66666667-46.93333333 76.8-84.26666667l11.52-12.90666666c12.26666667-15.68 18.98666667-31.89333333 18.98666667-49.6 0-23.78666667-6.82666667-42.13333333-19.73333334-55.68-13.54666667-13.54666667-33.28-20.37333333-57.81333333-20.37333334-30.61333333 0-53.01333333 9.49333333-66.56 29.22666667-12.26666667 16.32-18.34666667 39.46666667-18.34666667 69.33333333h-71.36c0-49.6 14.29333333-88.32 42.77333334-116.90666666 28.8-29.33333333 68.26666667-43.62666667 118.50666666-43.62666667z m-12.16 397.54666667c14.29333333 0 26.45333333 4.05333333 36.05333334 13.54666666 9.49333333 8.85333333 14.29333333 20.37333333 14.29333333 34.66666667 0 14.29333333-5.44 25.81333333-14.93333333 35.30666667-9.49333333 8.85333333-21.76 13.54666667-35.30666667 13.54666666-13.54666667 0-25.81333333-4.8-35.30666667-14.29333333-9.49333333-9.49333333-14.29333333-21.12-14.29333333-34.66666667 0-14.29333333 4.8-25.81333333 14.29333333-34.66666666 9.28-9.38666667 21.54666667-13.44 35.2-13.44z" p-id="3478" fill="#707070"></path></svg>