<?xml version="1.0" standalone="no"?><!DOCTYPE svg PUBLIC "-//W3C//DTD SVG 1.1//EN" "http://www.w3.org/Graphics/SVG/1.1/DTD/svg11.dtd"><svg t="1570779833384" class="icon" viewBox="0 0 1024 1024" version="1.1" xmlns="http://www.w3.org/2000/svg" p-id="1138" xmlns:xlink="http://www.w3.org/1999/xlink" width="200" height="200"><defs><style type="text/css"></style></defs><path d="M987.093333 83.669333a36.352 36.352 0 0 0-16.597333 4.309334l-1.664 0.810666a38.656 38.656 0 0 0-10.197333 4.864L510.549333 301.525333 60.245333 92.586667l-0.128-0.042667-9.258666-4.309333c-0.682667-0.170667-1.322667-0.512-2.005334-0.597334A33.365333 33.365333 0 0 0 37.333333 85.333333 37.290667 37.290667 0 0 0 0 122.666667v821.290666c0 20.565333 16.725333 37.333333 37.333333 37.333334 0.896 0 1.621333-0.512 2.517334-0.597334 0.896 0.085333 1.621333 0.597333 2.517333 0.597334 23.381333 0 43.008-18.986667 43.008-42.325334V198.314667l407.765333 189.226666a41.386667 41.386667 0 0 0 35.456-0.810666c0.768-0.298667 1.578667-0.170667 2.346667-0.554667L938.666667 196.992v741.973333c0 23.338667 18.901333 42.325333 42.325333 42.325334 1.066667 0 2.005333-0.597333 2.986667-0.682667 1.024 0.085333 2.005333 0.682667 3.029333 0.682667a37.333333 37.333333 0 0 0 37.333333-37.333334V119.381333c0.085333-20.650667-16.597333-35.712-37.248-35.712z" p-id="1139"></path><path d="M773.248 598.186667a36.352 36.352 0 0 0-22.314667 8.234666l-0.256-0.170666h-0.469333a382.549333 382.549333 0 0 1-246.272 89.685333c-93.013333 0-162.048-33.237333-228.650667-88.405333l-0.170666 0.256a36.693333 36.693333 0 0 0-24.277334-9.6 37.376 37.376 0 0 0-37.333333 37.418666c0 10.837333 4.778667 20.437333 12.16 27.349334l-0.128 0.085333c79.829333 66.986667 166.272 107.562667 278.4 107.562667 111.616 0 213.973333-40.064 293.546667-106.581334l-0.256-0.426666a36.693333 36.693333 0 0 0 13.354666-27.989334 37.290667 37.290667 0 0 0-37.333333-37.418666z" p-id="1140"></path></svg>