<?xml version="1.0" standalone="no"?><!DOCTYPE svg PUBLIC "-//W3C//DTD SVG 1.1//EN" "http://www.w3.org/Graphics/SVG/1.1/DTD/svg11.dtd"><svg t="1567765414009" class="icon" viewBox="0 0 1192 1024" version="1.1" xmlns="http://www.w3.org/2000/svg" p-id="3677" xmlns:xlink="http://www.w3.org/1999/xlink" width="149" height="128"><defs><style type="text/css"></style></defs><path d="M565.492537 290.38806v-34.418627a122.268657 122.268657 0 1 1 61.134329 0V290.38806h244.537313c84.411224 0 152.835821 68.424597 152.835821 152.835821v45.850746c76.265075 0 137.552239 63.992358 137.552239 142.290149 0 78.282507-61.287164 142.274866-137.552239 142.274866V840.597015c0 84.411224-68.424597 152.835821-152.835821 152.835821H320.955224c-84.411224 0-152.835821-68.424597-152.835821-152.835821v-66.957373c-76.265075 0-137.552239-63.992358-137.552239-142.290149C30.567164 553.066985 91.854328 489.074627 168.119403 489.074627v-45.850746c0-84.411224 68.424597-152.835821 152.835821-152.835821h244.537313z m458.507463 422.117253c41.907582 0 76.41791-36.038687 76.41791-81.15582C1100.41791 586.278209 1065.907582 550.208955 1024 550.208955v162.296358z m-855.880597 0V550.208955c-41.907582 0-76.41791 36.038687-76.41791 81.155821 0 45.086567 34.510328 81.140537 76.41791 81.140537zM320.955224 351.522388a91.701493 91.701493 0 0 0-91.701493 91.701493v397.373134a91.701493 91.701493 0 0 0 91.701493 91.701492h550.208955a91.701493 91.701493 0 0 0 91.701493-91.701492V443.223881a91.701493 91.701493 0 0 0-91.701493-91.701493H320.955224z m275.104477-152.835821a61.134328 61.134328 0 1 0 0-122.268657 61.134328 61.134328 0 0 0 0 122.268657zM427.940299 519.641791h336.238805a45.850746 45.850746 0 0 1 0 91.701493H427.940299a45.850746 45.850746 0 0 1 0-91.701493z m91.701492 229.253731h152.835821a30.567164 30.567164 0 1 1 0 61.134329H519.641791a30.567164 30.567164 0 1 1 0-61.134329z" p-id="3678"></path></svg>