<svg class="icon" width="64px" height="64.00px" viewBox="0 0 1024 1024" version="1.1" xmlns="http://www.w3.org/2000/svg"><path d="M523.54 860.073l112.38-92.41a46.131 46.131 0 0 0 16.22-28.238l21.744-135.02a3438.592 3438.592 0 0 0 36.593-29.777c111.682-91.832 178.8-222.208 189-367.099 1.98-25.462-16.17-45.911-40.193-48.932-144.168-17.971-285.06 22.692-396.733 114.504a3693.768 3693.768 0 0 0-40.653 33.797l-129.075-4.506a46.075 46.075 0 0 0-30.853 10.466l-112.384 92.426a45.85 45.85 0 0 0-16.297 42.245c2.391 15.923 13.015 29.599 27.77 35.784l90.86 37.929c-14.725 51.68-6.005 100.265 25.462 143.047a202.598 202.598 0 0 0 6.564 8.443c26.342 32.026 72.32 67.128 144.783 60.462L449.24 833.7a46.203 46.203 0 0 0 29.706 34.186 46.203 46.203 0 0 0 44.595-7.813z m34.852-467.978c-0.568-35.287 27.582-64.354 62.869-64.917 35.292-0.573 64.348 27.577 64.911 62.864 0.568 35.292-27.581 64.353-62.868 64.921-35.282 0.569-64.343-27.581-64.912-62.868zM300.575 790.062a15.944 15.944 0 0 0 11.637-10.916 15.872 15.872 0 0 0-3.614-15.56L204.856 652.909a15.985 15.985 0 0 0-15.293-4.624 15.918 15.918 0 0 0-11.663 10.921l-43.992 145.198a15.785 15.785 0 0 0-0.686 4.624v0.327c0.349 9.708 7.05 16.297 15.98 16.297A15.872 15.872 0 0 0 157 823.62l143.575-33.557z" /></svg>