<?xml version="1.0" standalone="no"?><!DOCTYPE svg PUBLIC "-//W3C//DTD SVG 1.1//EN" "http://www.w3.org/Graphics/SVG/1.1/DTD/svg11.dtd"><svg t="1562248742058" class="icon" viewBox="0 0 1024 1024" version="1.1" xmlns="http://www.w3.org/2000/svg" p-id="2215" xmlns:xlink="http://www.w3.org/1999/xlink" width="128" height="128"><defs><style type="text/css"></style></defs><path d="M991.48 989.504a30.104 30.104 0 0 0-33.76-25.504H805.216l-21.52-150h147.872A30.064 30.064 0 0 0 961.68 784a30.064 30.064 0 0 0-30.12-30h-156.48L753.584 604h147.864a30.064 30.064 0 0 0 30.128-30A30.064 30.064 0 0 0 901.44 544H688.72V298.152l64.856 54.736a30.216 30.216 0 0 0 42.456-3.488 29.92 29.92 0 0 0-3.504-42.288L437.064 7.12a30.224 30.224 0 0 0-38.952 0L42.648 307.12a29.92 29.92 0 0 0-3.504 42.288 30.216 30.216 0 0 0 42.464 3.488l64.856-54.736v245.84h-30.128a30.064 30.064 0 0 0-30.128 30 30.064 30.064 0 0 0 30.128 30h41.432l96.68 197.32c-16.944 64.288-50.72 123.232-99.16 171.472a29.912 29.912 0 0 0-6.536 32.696A30.12 30.12 0 0 0 176.584 1024h482a30.128 30.128 0 0 0 27.84-18.52 29.912 29.912 0 0 0-6.536-32.696c-48.44-48.24-82.216-107.184-99.152-171.472L677.408 604h15.304l56.56 394.24a30.08 30.08 0 0 0 29.824 25.76h180.752c21.08 0 34.128-17.056 31.632-34.496zM224.8 604h42.16v86.04L224.8 604z m368.36 360H242.016a438.752 438.752 0 0 0 85.2-259.704V604h60.24v150A30.064 30.064 0 0 0 417.592 784a30.064 30.064 0 0 0 30.128-30V604h60.248v100.296a438.768 438.768 0 0 0 85.2 259.704zM387.464 544V420h60.248V544h-60.248z m180.752 146.04V604h42.16l-42.16 86.04zM628.464 544H507.96V390A30.064 30.064 0 0 0 477.84 360H357.336a30.064 30.064 0 0 0-30.128 30V544H206.72V247.296l210.88-177.976 210.88 177.976V544z" fill="#3ECC7B" p-id="2216"></path></svg>